<?xml version="1.0" encoding="utf-8" ?>
<svg xmlns="http://www.w3.org/2000/svg" xmlns:xlink="http://www.w3.org/1999/xlink" width="302" height="302">
	<path fill="#06478C" d="M0 0L84.2241 0L84.9013 0L135.685 0L250.286 0L251.586 0L301.557 0L302 0L302 173.937L302 302L218.633 302L216.029 302L167.805 302L167.479 302L52.6184 302L50.0093 302L1.26377 302L0 302L0 0ZM0 0L0 302L1.26377 302L50.0093 302L52.6184 302C53.2172 298.44 52.7132 290.24 52.703 286.321L52.7109 251.476L52.7179 175.246C52.7184 161.826 53.0069 148.335 52.6639 134.922C56.1534 135.08 59.7381 134.874 63.2398 134.867L84.0217 134.94C83.8443 132.645 83.9836 130.245 83.983 127.941L83.979 114.142C83.9717 103.875 83.6315 93.4918 84.0373 83.237C84.3996 63.9818 84.0767 44.661 84.067 25.3991C84.0628 17.0128 83.5729 8.34859 84.2241 0L0 0ZM250.286 0C250.032 19.3691 250.24 38.7619 250.241 58.134L250.25 166.502C247.569 166.03 221.326 165.922 218.688 166.459C218.187 168.512 218.098 215.721 218.608 218.487C219.027 225.267 218.785 232.174 218.779 238.968L218.758 274.065L218.782 292.589C218.788 295.559 219.139 299.082 218.633 302L302 302L302 173.937L302 0L301.557 0L251.586 0L250.286 0ZM52.6639 134.922C53.0069 148.335 52.7184 161.826 52.7179 175.246L52.7109 251.476L52.703 286.321C52.7132 290.24 53.2172 298.44 52.6184 302L167.479 302C166.924 299.309 167.244 296.022 167.248 293.265L167.27 277.401C167.27 257.787 166.912 238.107 167.38 218.501C166.659 218.663 165.929 218.664 165.194 218.679C159.468 218.802 153.716 218.62 147.985 218.641C135.096 218.687 124.136 218.903 112.294 212.923C107.896 210.701 104.167 208.197 100.609 204.78C92.0182 196.531 85.8073 186.602 84.4236 174.517C83.8815 169.782 84.0535 164.941 84.0577 160.181C84.0653 151.773 84.2078 143.346 84.0217 134.94L63.2398 134.867C59.7381 134.874 56.1534 135.08 52.6639 134.922ZM135.685 0L135.685 0.305745C136.108 17.9375 135.76 35.6504 135.754 53.2903L135.755 72.3997C135.755 75.9623 135.96 79.7072 135.612 83.25L157.435 83.2317C162.208 83.2294 167.12 83.0008 171.87 83.4177Q172.988 83.5117 174.1 83.6539Q175.212 83.7961 176.318 83.9862Q177.423 84.1764 178.519 84.414Q179.615 84.6517 180.7 84.9365Q181.784 85.2213 182.856 85.5527Q183.927 85.884 184.983 86.2614Q186.039 86.6387 187.078 87.0613Q188.117 87.4839 189.137 87.951Q190.156 88.4181 191.155 88.9287Q192.153 89.4394 193.128 89.9927Q194.104 90.5461 195.055 91.141Q196.005 91.736 196.929 92.3714Q197.853 93.0069 198.749 93.6816Q199.645 94.3564 200.511 95.0692Q201.377 95.782 202.211 96.5316Q203.045 97.2811 203.846 98.066Q206.551 100.807 208.836 103.907Q211.121 107.008 212.938 110.403C220.108 123.804 218.79 135.288 218.775 149.87Q218.807 158.165 218.688 166.459C221.326 165.922 247.569 166.03 250.25 166.502L250.241 58.134C250.24 38.7619 250.032 19.3691 250.286 0L135.685 0ZM84.2241 0C83.5729 8.34859 84.0628 17.0128 84.067 25.3991C84.0767 44.661 84.3996 63.9818 84.0373 83.237C83.6315 93.4918 83.9717 103.875 83.979 114.142L83.983 127.941C83.9836 130.245 83.8443 132.645 84.0217 134.94C84.2078 143.346 84.0653 151.773 84.0577 160.181C84.0535 164.941 83.8815 169.782 84.4236 174.517C85.8073 186.602 92.0182 196.531 100.609 204.78C104.167 208.197 107.896 210.701 112.294 212.923C124.136 218.903 135.096 218.687 147.985 218.641C153.716 218.62 159.468 218.802 165.194 218.679C165.929 218.664 166.659 218.663 167.38 218.501C167.669 215.456 167.562 212.291 167.567 209.233L167.577 194.571C167.579 185.497 168.09 175.481 167.333 166.547C164.46 165.707 140.474 166.259 135.721 166.281C135.9 162.104 135.757 157.864 135.758 153.681C135.759 147.431 135.833 141.168 135.639 134.92C135.183 128.921 135.555 122.616 135.556 116.591L135.612 83.25C135.96 79.7072 135.755 75.9623 135.755 72.3997L135.754 53.2903C135.76 35.6504 136.108 17.9375 135.685 0.305745L135.685 0L84.9013 0L84.2241 0ZM135.639 134.92C135.833 141.168 135.759 147.431 135.758 153.681C135.757 157.864 135.9 162.104 135.721 166.281C140.474 166.259 164.46 165.707 167.333 166.547C167.173 156.055 166.882 145.345 167.336 134.869C156.776 134.853 146.195 135.043 135.639 134.92ZM167.805 302L216.029 302C211.918 301.119 201.233 301.623 196.599 301.626C187.283 301.632 177.035 301.028 167.805 302Z"/>
	<path fill="#06478C" fill-opacity="0.65490198" d="M167.805 302C177.035 301.028 187.283 301.632 196.599 301.626C201.233 301.623 211.918 301.119 216.029 302L167.805 302Z"/>
	<path fill="#85C826" d="M84.2241 0L84.9013 0L135.685 0L135.685 0.305745C136.108 17.9375 135.76 35.6504 135.754 53.2903L135.755 72.3997C135.755 75.9623 135.96 79.7072 135.612 83.25L135.556 116.591C135.555 122.616 135.183 128.921 135.639 134.92C135.833 141.168 135.759 147.431 135.758 153.681C135.757 157.864 135.9 162.104 135.721 166.281C140.474 166.259 164.46 165.707 167.333 166.547C168.09 175.481 167.579 185.497 167.577 194.571L167.567 209.233C167.562 212.291 167.669 215.456 167.38 218.501C166.659 218.663 165.929 218.664 165.194 218.679C159.468 218.802 153.716 218.62 147.985 218.641C135.096 218.687 124.136 218.903 112.294 212.923C107.896 210.701 104.167 208.197 100.609 204.78C92.0182 196.531 85.8073 186.602 84.4236 174.517C83.8815 169.782 84.0535 164.941 84.0577 160.181C84.0653 151.773 84.2078 143.346 84.0217 134.94C83.8443 132.645 83.9836 130.245 83.983 127.941L83.979 114.142C83.9717 103.875 83.6315 93.4918 84.0373 83.237C84.3996 63.9818 84.0767 44.661 84.067 25.3991C84.0628 17.0128 83.5729 8.34859 84.2241 0ZM84.9013 0C88.566 0.918458 94.7709 0.305938 98.7437 0.304769L126.565 0.293279C129.385 0.287855 132.967 -0.218787 135.685 0.305745L135.685 0L84.9013 0Z"/>
	<path fill="#85C826" fill-opacity="0.93725491" d="M84.9013 0L135.685 0L135.685 0.305745C132.967 -0.218787 129.385 0.287855 126.565 0.293279L98.7437 0.304769C94.7709 0.305938 88.566 0.918458 84.9013 0Z"/>
	<path fill="#85C826" d="M250.286 0L251.586 0L301.557 0L302 0L302 173.937L302 302L218.633 302C219.139 299.082 218.788 295.559 218.782 292.589L218.758 274.065L218.779 238.968C218.785 232.174 219.027 225.267 218.608 218.487C218.098 215.721 218.187 168.512 218.688 166.459C221.326 165.922 247.569 166.03 250.25 166.502L250.241 58.134C250.24 38.7619 250.032 19.3691 250.286 0ZM302 173.937C301.008 177.541 300.374 181.215 299.095 184.739C295.269 195.281 286.954 205.539 277.15 211.109C261.875 219.787 249.745 218.624 232.949 218.641C228.831 218.645 222.455 219.123 218.608 218.487C219.027 225.267 218.785 232.174 218.779 238.968L218.758 274.065L218.782 292.589C218.788 295.559 219.139 299.082 218.633 302L302 302L302 173.937ZM251.586 0C251.723 0.0926109 251.845 0.212847 251.997 0.277833C252.249 0.385481 298.692 0.594709 300.841 0.185726C301.09 0.138301 301.315 0.0758003 301.557 0L251.586 0Z"/>
	<path fill="#85C826" fill-opacity="0.93725491" d="M251.586 0L301.557 0C301.315 0.0758003 301.09 0.138301 300.841 0.185726C298.692 0.594709 252.249 0.385481 251.997 0.277833C251.845 0.212847 251.723 0.0926109 251.586 0Z"/>
	<path fill="#06478C" d="M0 0L84.2241 0C83.5729 8.34859 84.0628 17.0128 84.067 25.3991C84.0767 44.661 84.3996 63.9818 84.0373 83.237C83.6315 93.4918 83.9717 103.875 83.979 114.142L83.983 127.941C83.9836 130.245 83.8443 132.645 84.0217 134.94L63.2398 134.867C59.7381 134.874 56.1534 135.08 52.6639 134.922C53.0069 148.335 52.7184 161.826 52.7179 175.246L52.7109 251.476L52.703 286.321C52.7132 290.24 53.2172 298.44 52.6184 302L50.0093 302L1.26377 302L0 302L0 0ZM0 0L0 302L1.26377 302L1.23246 301.637C0.142896 298.712 0.734198 254.524 0.734427 248.6L0.720695 142.311C0.707634 136.403 0.530334 130.486 1.5187 124.634C3.11417 115.188 8.80393 104.987 15.535 98.2505Q16.3534 97.4457 17.2063 96.6775Q18.0593 95.9093 18.945 95.1792Q19.8307 94.4491 20.7476 93.7585Q21.6645 93.0679 22.6107 92.4182Q23.557 91.7684 24.5308 91.1607Q25.5046 90.553 26.5041 89.9885Q27.5035 89.4241 28.5268 88.904Q29.55 88.3838 30.5951 87.909Q31.6401 87.4342 32.705 87.0056Q33.7698 86.5771 34.8524 86.1955Q35.935 85.814 37.0333 85.4803Q38.1316 85.1466 39.2434 84.8613Q40.3553 84.576 41.4785 84.3396Q42.6018 84.1033 43.7343 83.9164Q44.8669 83.7295 46.0065 83.5924Q47.1461 83.4553 48.2907 83.3683C52.8454 82.9945 57.5637 83.2316 62.1374 83.2314L84.0373 83.237C84.3996 63.9818 84.0767 44.661 84.067 25.3991C84.0628 17.0128 83.5729 8.34859 84.2241 0L0 0ZM1.23246 301.637L1.26377 302L50.0093 302C46.3426 301.309 41.98 301.625 38.2368 301.622L13.6656 301.666C9.57983 301.688 5.29314 302.081 1.23246 301.637Z"/>
	<path fill="#06478C" fill-opacity="0.64313728" d="M1.23246 301.637C5.29314 302.081 9.57983 301.688 13.6656 301.666L38.2368 301.622C41.98 301.625 46.3426 301.309 50.0093 302L1.26377 302L1.23246 301.637Z"/>
</svg>
